<svg xmlns="http://www.w3.org/2000/svg" xmlns:xlink="http://www.w3.org/1999/xlink" width="1920" zoomAndPan="magnify" viewBox="0 0 1440 809.999993" height="1080" preserveAspectRatio="xMidYMid meet" version="1.0"><defs><g/><clipPath id="b51f0a21b6"><path d="M 433 12.503906 L 444 12.503906 L 444 54 L 433 54 Z M 433 12.503906 " clip-rule="nonzero"/></clipPath><clipPath id="e85b3106d8"><path d="M 433 153 L 444 153 L 444 194.125 L 433 194.125 Z M 433 153 " clip-rule="nonzero"/></clipPath><clipPath id="1cd0773242"><path d="M 347.234375 98 L 389 98 L 389 110 L 347.234375 110 Z M 347.234375 98 " clip-rule="nonzero"/></clipPath><clipPath id="f478711c06"><path d="M 488 98 L 528.855469 98 L 528.855469 110 L 488 110 Z M 488 98 " clip-rule="nonzero"/></clipPath><clipPath id="1ee5a2d302"><path d="M 1.386719 1.429688 L 205.207031 1.429688 L 205.207031 205.25 L 1.386719 205.25 Z M 1.386719 1.429688 " clip-rule="nonzero"/></clipPath><clipPath id="650bc11f5c"><path d="M 670.933594 17.664062 L 812 17.664062 L 812 189.195312 L 670.933594 189.195312 Z M 670.933594 17.664062 " clip-rule="nonzero"/></clipPath><clipPath id="b2717bd8a9"><rect x="0" width="815" y="0" height="298"/></clipPath></defs><g transform="matrix(1, 0, 0, 1, 301, 254)"><g clip-path="url(#b2717bd8a9)"><g clip-path="url(#b51f0a21b6)"><path fill="#d6dee6" d="M 438.292969 53.785156 L 438.582031 53.785156 C 441.472656 53.785156 443.824219 51.433594 443.824219 48.546875 L 443.824219 22.121094 C 443.820312 22.078125 443.820312 22.03125 443.824219 21.984375 L 443.824219 17.742188 C 443.824219 14.855469 441.472656 12.503906 438.582031 12.503906 L 438.292969 12.503906 C 435.402344 12.503906 433.054688 14.855469 433.054688 17.742188 L 433.054688 21.980469 C 433.058594 22.03125 433.058594 22.074219 433.054688 22.121094 L 433.054688 48.546875 C 433.054688 51.433594 435.402344 53.785156 438.292969 53.785156 Z M 438.292969 53.785156 " fill-opacity="1" fill-rule="nonzero"/></g><g clip-path="url(#e85b3106d8)"><path fill="#d6dee6" d="M 438.582031 153.632812 L 438.292969 153.632812 C 435.402344 153.632812 433.054688 155.984375 433.054688 158.871094 L 433.054688 189.675781 C 433.054688 192.5625 435.402344 194.914062 438.292969 194.914062 L 438.582031 194.914062 C 441.472656 194.914062 443.824219 192.5625 443.824219 189.675781 L 443.824219 185.4375 C 443.820312 185.386719 443.820312 185.34375 443.824219 185.296875 L 443.824219 158.871094 C 443.824219 155.984375 441.472656 153.632812 438.582031 153.632812 Z M 438.582031 153.632812 " fill-opacity="1" fill-rule="nonzero"/></g><g clip-path="url(#1cd0773242)"><path fill="#d6dee6" d="M 372.179688 109.09375 L 383.273438 109.09375 C 386.164062 109.09375 388.511719 106.742188 388.511719 103.855469 L 388.511719 103.5625 C 388.511719 100.675781 386.164062 98.324219 383.273438 98.324219 L 352.472656 98.324219 C 349.582031 98.324219 347.234375 100.675781 347.234375 103.5625 L 347.234375 103.855469 C 347.234375 106.742188 349.582031 109.09375 352.472656 109.09375 L 356.714844 109.09375 C 356.761719 109.089844 356.808594 109.089844 356.855469 109.09375 L 371.984375 109.09375 C 372.054688 109.089844 372.117188 109.089844 372.179688 109.09375 Z M 372.179688 109.09375 " fill-opacity="1" fill-rule="nonzero"/></g><g clip-path="url(#f478711c06)"><path fill="#d6dee6" d="M 524.402344 98.324219 L 493.601562 98.324219 C 490.710938 98.324219 488.363281 100.675781 488.363281 103.5625 L 488.363281 103.855469 C 488.363281 106.742188 490.710938 109.09375 493.601562 109.09375 L 524.402344 109.09375 C 527.292969 109.09375 529.644531 106.742188 529.644531 103.855469 L 529.644531 103.5625 C 529.644531 100.675781 527.292969 98.324219 524.402344 98.324219 Z M 524.402344 98.324219 " fill-opacity="1" fill-rule="nonzero"/></g><path fill="#d6dee6" d="M 487.222656 152.496094 C 476.707031 163.015625 462.953125 169.894531 448.3125 172.003906 L 448.3125 182.863281 C 484.53125 178.402344 513.128906 149.800781 517.59375 113.582031 L 506.730469 113.582031 C 504.625 128.226562 497.742188 141.976562 487.222656 152.496094 Z M 487.222656 152.496094 " fill-opacity="1" fill-rule="nonzero"/><path fill="#d6dee6" d="M 506.730469 93.835938 L 517.59375 93.835938 C 513.128906 57.617188 484.53125 29.015625 448.3125 24.554688 L 448.3125 35.414062 C 462.953125 37.523438 476.707031 44.402344 487.222656 54.921875 C 497.742188 65.441406 504.625 79.191406 506.730469 93.835938 Z M 506.730469 93.835938 " fill-opacity="1" fill-rule="nonzero"/><path fill="#d6dee6" d="M 370.144531 113.582031 L 359.28125 113.582031 C 363.742188 149.800781 392.34375 178.402344 428.5625 182.863281 L 428.5625 172.003906 C 413.921875 169.894531 400.167969 163.015625 389.652344 152.496094 C 379.132812 141.976562 372.25 128.226562 370.144531 113.582031 Z M 370.144531 113.582031 " fill-opacity="1" fill-rule="nonzero"/><path fill="#d6dee6" d="M 389.652344 54.921875 C 400.167969 44.402344 413.921875 37.523438 428.5625 35.414062 L 428.5625 24.554688 C 392.34375 29.015625 363.742188 57.617188 359.28125 93.835938 L 370.144531 93.835938 C 372.25 79.191406 379.132812 65.441406 389.652344 54.921875 Z M 389.652344 54.921875 " fill-opacity="1" fill-rule="nonzero"/><path fill="#d6dee6" d="M 438.4375 73.53125 C 421.796875 73.53125 408.257812 87.070312 408.257812 103.710938 C 408.257812 120.347656 421.796875 133.886719 438.4375 133.886719 C 455.078125 133.886719 468.617188 120.347656 468.617188 103.710938 C 468.617188 87.070312 455.078125 73.53125 438.4375 73.53125 Z M 453.394531 95.511719 L 434.320312 115.042969 C 433.898438 115.476562 433.320312 115.71875 432.714844 115.71875 L 432.699219 115.71875 C 432.085938 115.714844 431.5 115.460938 431.082031 115.015625 L 423.457031 106.921875 C 422.601562 106.023438 422.648438 104.601562 423.550781 103.75 C 424.449219 102.902344 425.867188 102.941406 426.722656 103.84375 L 432.746094 110.234375 L 450.179688 92.375 C 451.046875 91.484375 452.46875 91.46875 453.355469 92.332031 C 454.242188 93.203125 454.261719 94.625 453.394531 95.511719 Z M 453.394531 95.511719 " fill-opacity="1" fill-rule="nonzero"/><g clip-path="url(#1ee5a2d302)"><path fill="#d6dee6" d="M 194.269531 79.285156 C 193.65625 75.863281 193.601562 72.429688 194.09375 68.984375 C 194.550781 63.316406 195.027344 57.449219 192.125 52.445312 C 189.1875 47.367188 183.8125 44.835938 178.636719 42.382812 C 175.460938 41.121094 172.558594 39.390625 169.9375 37.195312 C 167.742188 34.574219 166.011719 31.675781 164.753906 28.496094 C 162.304688 23.308594 159.773438 17.945312 154.6875 15.007812 C 149.6875 12.109375 143.816406 12.582031 138.144531 13.039062 C 134.703125 13.535156 131.273438 13.476562 127.847656 12.867188 C 124.71875 11.714844 121.84375 10.105469 119.230469 8.03125 C 114.707031 4.890625 109.5625 1.320312 103.550781 1.320312 C 97.539062 1.320312 92.394531 4.890625 87.859375 8.042969 C 85.246094 10.117188 82.371094 11.726562 79.242188 12.878906 C 75.816406 13.488281 72.382812 13.542969 68.941406 13.046875 C 63.269531 12.589844 57.40625 12.117188 52.402344 15.015625 C 47.320312 17.957031 44.789062 23.328125 42.339844 28.503906 C 41.078125 31.683594 39.347656 34.585938 37.152344 37.207031 C 34.53125 39.402344 31.628906 41.132812 28.449219 42.394531 C 23.265625 44.839844 17.902344 47.367188 14.964844 52.457031 C 12.066406 57.460938 12.542969 63.328125 12.996094 69 C 13.488281 72.441406 13.433594 75.875 12.824219 79.296875 C 11.671875 82.429688 10.0625 85.300781 7.988281 87.914062 C 4.847656 92.4375 1.277344 97.582031 1.277344 103.59375 C 1.277344 109.605469 4.847656 114.75 8 119.285156 C 10.074219 121.898438 11.683594 124.773438 12.832031 127.902344 C 13.445312 131.328125 13.5 134.757812 13.003906 138.199219 C 12.546875 143.875 12.074219 149.738281 14.972656 154.742188 C 17.914062 159.824219 23.285156 162.355469 28.460938 164.808594 C 31.640625 166.066406 34.539062 167.796875 37.164062 169.992188 C 39.359375 172.613281 41.085938 175.511719 42.347656 178.691406 C 44.796875 183.878906 47.324219 189.242188 52.414062 192.179688 C 57.414062 195.074219 63.28125 194.601562 68.957031 194.148438 C 72.398438 193.65625 75.832031 193.714844 79.253906 194.324219 C 82.386719 195.472656 85.257812 197.082031 87.871094 199.15625 C 92.410156 202.304688 97.550781 205.878906 103.5625 205.878906 C 109.574219 205.878906 114.722656 202.304688 119.253906 199.15625 C 121.867188 197.082031 124.742188 195.472656 127.871094 194.324219 C 131.296875 193.710938 134.726562 193.652344 138.171875 194.148438 C 143.84375 194.605469 149.710938 195.082031 154.714844 192.179688 C 159.792969 189.242188 162.324219 183.867188 164.777344 178.691406 C 166.039062 175.515625 167.765625 172.613281 169.960938 169.992188 C 172.582031 167.796875 175.484375 166.070312 178.660156 164.808594 C 183.847656 162.359375 189.210938 159.828125 192.148438 154.742188 C 195.042969 149.742188 194.570312 143.875 194.121094 138.199219 C 193.621094 134.757812 193.679688 131.328125 194.292969 127.902344 C 195.441406 124.773438 197.050781 121.898438 199.125 119.285156 C 202.273438 114.746094 205.847656 109.605469 205.847656 103.59375 C 205.847656 97.582031 202.273438 92.4375 199.125 87.902344 C 197.042969 85.289062 195.425781 82.417969 194.269531 79.285156 Z M 192.804688 114.917969 C 190.195312 118.246094 188.214844 121.914062 186.867188 125.925781 C 185.996094 130.199219 185.859375 134.496094 186.460938 138.816406 C 186.84375 143.527344 187.203125 147.972656 185.503906 150.910156 C 183.753906 153.917969 179.6875 155.84375 175.375 157.875 C 171.375 159.484375 167.761719 161.71875 164.527344 164.574219 C 161.675781 167.804688 159.441406 171.417969 157.832031 175.417969 C 155.796875 179.730469 153.875 183.804688 150.863281 185.546875 C 147.929688 187.246094 143.476562 186.882812 138.773438 186.507812 C 134.453125 185.90625 130.15625 186.039062 125.882812 186.914062 C 121.871094 188.261719 118.203125 190.242188 114.875 192.855469 C 110.910156 195.609375 107.164062 198.210938 103.550781 198.210938 C 99.9375 198.210938 96.191406 195.609375 92.226562 192.855469 C 88.898438 190.242188 85.226562 188.261719 81.21875 186.914062 C 79.082031 186.378906 76.914062 186.128906 74.714844 186.164062 C 72.582031 186.164062 70.4375 186.335938 68.328125 186.507812 C 63.621094 186.882812 59.171875 187.246094 56.234375 185.546875 C 53.222656 183.796875 51.304688 179.730469 49.269531 175.417969 C 47.660156 171.417969 45.425781 167.804688 42.570312 164.574219 C 39.339844 161.71875 35.726562 159.484375 31.726562 157.875 C 27.421875 155.84375 23.339844 153.910156 21.59375 150.910156 C 19.898438 147.972656 20.257812 143.527344 20.636719 138.816406 C 21.238281 134.496094 21.101562 130.199219 20.230469 125.925781 C 18.882812 121.914062 16.90625 118.246094 14.292969 114.917969 C 11.535156 110.953125 8.933594 107.207031 8.933594 103.59375 C 8.933594 99.980469 11.535156 96.234375 14.289062 92.269531 C 16.902344 88.941406 18.882812 85.273438 20.230469 81.261719 C 21.101562 76.988281 21.238281 72.691406 20.640625 68.375 C 20.261719 63.664062 19.898438 59.214844 21.597656 56.28125 C 23.347656 53.269531 27.414062 51.347656 31.726562 49.316406 C 35.726562 47.703125 39.34375 45.472656 42.574219 42.617188 C 45.429688 39.386719 47.660156 35.769531 49.269531 31.773438 C 51.304688 27.457031 53.226562 23.382812 56.238281 21.640625 C 59.171875 19.941406 63.621094 20.300781 68.328125 20.683594 C 72.648438 21.28125 76.945312 21.144531 81.21875 20.277344 C 85.230469 18.929688 88.898438 16.949219 92.226562 14.339844 C 96.191406 11.578125 99.9375 8.980469 103.550781 8.980469 C 107.164062 8.980469 110.910156 11.578125 114.875 14.332031 C 118.203125 16.945312 121.871094 18.925781 125.882812 20.273438 C 130.15625 21.148438 134.453125 21.285156 138.773438 20.683594 C 143.480469 20.304688 147.929688 19.945312 150.863281 21.644531 C 153.875 23.394531 155.796875 27.457031 157.832031 31.769531 C 159.441406 35.769531 161.671875 39.386719 164.527344 42.617188 C 167.761719 45.472656 171.375 47.703125 175.375 49.316406 C 179.6875 51.347656 183.761719 53.273438 185.503906 56.28125 C 187.203125 59.21875 186.84375 63.664062 186.464844 68.375 C 185.863281 72.691406 185.996094 76.988281 186.871094 81.261719 C 188.21875 85.273438 190.199219 88.941406 192.8125 92.269531 C 195.566406 96.238281 198.167969 99.984375 198.167969 103.597656 C 198.167969 107.210938 195.566406 110.953125 192.804688 114.917969 Z M 192.804688 114.917969 " fill-opacity="1" fill-rule="nonzero"/></g><path fill="#d6dee6" d="M 103.550781 32.828125 C 102.390625 32.828125 101.234375 32.855469 100.078125 32.910156 C 98.921875 32.96875 97.765625 33.054688 96.613281 33.167969 C 95.460938 33.28125 94.3125 33.421875 93.167969 33.59375 C 92.019531 33.761719 90.878906 33.960938 89.746094 34.1875 C 88.609375 34.410156 87.480469 34.664062 86.355469 34.945312 C 85.230469 35.230469 84.117188 35.539062 83.007812 35.875 C 81.898438 36.210938 80.800781 36.574219 79.710938 36.964844 C 78.617188 37.351562 77.539062 37.769531 76.46875 38.214844 C 75.398438 38.65625 74.339844 39.125 73.292969 39.621094 C 72.246094 40.117188 71.210938 40.636719 70.191406 41.183594 C 69.167969 41.730469 68.160156 42.300781 67.167969 42.894531 C 66.175781 43.488281 65.195312 44.109375 64.234375 44.753906 C 63.269531 45.398438 62.324219 46.0625 61.394531 46.753906 C 60.460938 47.441406 59.550781 48.15625 58.65625 48.890625 C 57.757812 49.625 56.882812 50.382812 56.023438 51.160156 C 55.167969 51.9375 54.328125 52.734375 53.507812 53.554688 C 52.691406 54.375 51.890625 55.210938 51.113281 56.070312 C 50.335938 56.929688 49.578125 57.804688 48.84375 58.699219 C 48.109375 59.59375 47.398438 60.507812 46.707031 61.4375 C 46.019531 62.367188 45.351562 63.316406 44.707031 64.277344 C 44.0625 65.242188 43.445312 66.21875 42.847656 67.214844 C 42.253906 68.207031 41.683594 69.214844 41.136719 70.234375 C 40.589844 71.257812 40.070312 72.292969 39.574219 73.339844 C 39.078125 74.386719 38.609375 75.445312 38.167969 76.515625 C 37.722656 77.582031 37.308594 78.664062 36.917969 79.753906 C 36.527344 80.84375 36.164062 81.945312 35.828125 83.054688 C 35.492188 84.160156 35.183594 85.277344 34.902344 86.402344 C 34.621094 87.523438 34.367188 88.652344 34.140625 89.789062 C 33.914062 90.925781 33.714844 92.066406 33.546875 93.210938 C 33.375 94.359375 33.234375 95.507812 33.121094 96.660156 C 33.007812 97.8125 32.921875 98.96875 32.867188 100.125 C 32.808594 101.28125 32.78125 102.4375 32.78125 103.597656 C 32.78125 104.753906 32.808594 105.914062 32.867188 107.070312 C 32.921875 108.226562 33.007812 109.378906 33.121094 110.535156 C 33.234375 111.6875 33.375 112.835938 33.546875 113.980469 C 33.714844 115.125 33.914062 116.265625 34.140625 117.402344 C 34.367188 118.539062 34.621094 119.667969 34.902344 120.792969 C 35.183594 121.917969 35.492188 123.03125 35.828125 124.140625 C 36.164062 125.25 36.527344 126.347656 36.917969 127.4375 C 37.308594 128.527344 37.726562 129.609375 38.167969 130.679688 C 38.609375 131.75 39.082031 132.808594 39.574219 133.855469 C 40.070312 134.902344 40.589844 135.9375 41.136719 136.957031 C 41.683594 137.980469 42.253906 138.988281 42.847656 139.980469 C 43.445312 140.972656 44.066406 141.953125 44.707031 142.914062 C 45.351562 143.878906 46.019531 144.824219 46.707031 145.753906 C 47.398438 146.683594 48.109375 147.597656 48.84375 148.492188 C 49.578125 149.390625 50.335938 150.265625 51.113281 151.125 C 51.890625 151.980469 52.691406 152.820312 53.507812 153.640625 C 54.328125 154.457031 55.167969 155.257812 56.023438 156.035156 C 56.882812 156.8125 57.761719 157.570312 58.65625 158.304688 C 59.550781 159.039062 60.464844 159.75 61.394531 160.441406 C 62.324219 161.128906 63.269531 161.796875 64.234375 162.441406 C 65.195312 163.082031 66.175781 163.703125 67.167969 164.300781 C 68.160156 164.894531 69.167969 165.464844 70.191406 166.011719 C 71.210938 166.558594 72.246094 167.078125 73.292969 167.574219 C 74.339844 168.066406 75.398438 168.535156 76.46875 168.980469 C 77.539062 169.421875 78.621094 169.839844 79.710938 170.230469 C 80.800781 170.621094 81.898438 170.984375 83.007812 171.320312 C 84.117188 171.65625 85.234375 171.964844 86.355469 172.246094 C 87.480469 172.527344 88.609375 172.78125 89.746094 173.007812 C 90.882812 173.234375 92.023438 173.429688 93.167969 173.601562 C 94.3125 173.769531 95.460938 173.914062 96.617188 174.027344 C 97.769531 174.140625 98.921875 174.226562 100.078125 174.28125 C 101.238281 174.339844 102.394531 174.367188 103.550781 174.367188 C 104.710938 174.367188 105.867188 174.339844 107.023438 174.28125 C 108.179688 174.226562 109.335938 174.140625 110.488281 174.027344 C 111.640625 173.914062 112.789062 173.769531 113.9375 173.601562 C 115.082031 173.429688 116.222656 173.234375 117.359375 173.007812 C 118.496094 172.78125 119.625 172.527344 120.75 172.246094 C 121.871094 171.964844 122.988281 171.65625 124.097656 171.320312 C 125.203125 170.984375 126.304688 170.621094 127.394531 170.230469 C 128.484375 169.839844 129.566406 169.421875 130.636719 168.980469 C 131.703125 168.535156 132.761719 168.066406 133.808594 167.570312 C 134.859375 167.078125 135.890625 166.554688 136.914062 166.007812 C 137.933594 165.464844 138.941406 164.894531 139.933594 164.296875 C 140.929688 163.703125 141.90625 163.082031 142.871094 162.4375 C 143.832031 161.796875 144.78125 161.128906 145.710938 160.4375 C 146.640625 159.75 147.554688 159.035156 148.449219 158.300781 C 149.34375 157.566406 150.21875 156.808594 151.078125 156.03125 C 151.9375 155.253906 152.773438 154.457031 153.59375 153.636719 C 154.414062 152.820312 155.210938 151.980469 155.988281 151.121094 C 156.765625 150.261719 157.523438 149.386719 158.257812 148.492188 C 158.992188 147.597656 159.707031 146.683594 160.394531 145.753906 C 161.085938 144.824219 161.75 143.875 162.394531 142.914062 C 163.039062 141.949219 163.65625 140.972656 164.253906 139.976562 C 164.847656 138.984375 165.417969 137.976562 165.964844 136.957031 C 166.511719 135.933594 167.03125 134.898438 167.527344 133.851562 C 168.023438 132.804688 168.492188 131.746094 168.933594 130.675781 C 169.378906 129.605469 169.792969 128.527344 170.183594 127.4375 C 170.574219 126.347656 170.9375 125.246094 171.273438 124.136719 C 171.609375 123.03125 171.917969 121.914062 172.199219 120.789062 C 172.480469 119.667969 172.734375 118.539062 172.960938 117.402344 C 173.1875 116.265625 173.386719 115.125 173.554688 113.980469 C 173.726562 112.832031 173.867188 111.683594 173.980469 110.53125 C 174.09375 109.378906 174.179688 108.222656 174.234375 107.066406 C 174.292969 105.910156 174.320312 104.753906 174.320312 103.59375 C 174.320312 102.4375 174.289062 101.28125 174.230469 100.125 C 174.171875 98.964844 174.085938 97.8125 173.972656 96.660156 C 173.859375 95.507812 173.714844 94.359375 173.542969 93.214844 C 173.375 92.070312 173.175781 90.929688 172.949219 89.792969 C 172.71875 88.660156 172.464844 87.527344 172.183594 86.40625 C 171.902344 85.285156 171.59375 84.167969 171.253906 83.058594 C 170.917969 81.953125 170.554688 80.855469 170.164062 79.765625 C 169.773438 78.675781 169.355469 77.59375 168.910156 76.523438 C 168.46875 75.457031 168 74.398438 167.503906 73.351562 C 167.007812 72.304688 166.484375 71.269531 165.941406 70.25 C 165.394531 69.230469 164.824219 68.222656 164.226562 67.230469 C 163.632812 66.238281 163.011719 65.257812 162.367188 64.296875 C 161.726562 63.335938 161.058594 62.386719 160.367188 61.457031 C 159.679688 60.527344 158.964844 59.617188 158.230469 58.722656 C 157.496094 57.828125 156.742188 56.949219 155.964844 56.09375 C 155.183594 55.234375 154.386719 54.394531 153.570312 53.578125 C 152.75 52.757812 151.910156 51.960938 151.054688 51.183594 C 150.195312 50.40625 149.320312 49.648438 148.425781 48.914062 C 147.53125 48.179688 146.617188 47.46875 145.6875 46.777344 C 144.757812 46.085938 143.8125 45.421875 142.847656 44.777344 C 141.886719 44.132812 140.910156 43.515625 139.914062 42.917969 C 138.921875 42.324219 137.914062 41.753906 136.894531 41.207031 C 135.875 40.660156 134.839844 40.140625 133.792969 39.644531 C 132.746094 39.148438 131.691406 38.679688 130.621094 38.234375 C 129.550781 37.792969 128.472656 37.375 127.382812 36.984375 C 126.292969 36.59375 125.191406 36.230469 124.085938 35.890625 C 122.976562 35.554688 121.863281 35.246094 120.738281 34.964844 C 119.617188 34.679688 118.488281 34.425781 117.351562 34.199219 C 116.214844 33.972656 115.074219 33.773438 113.929688 33.601562 C 112.785156 33.433594 111.636719 33.289062 110.484375 33.175781 C 109.332031 33.058594 108.179688 32.972656 107.023438 32.914062 C 105.867188 32.855469 104.707031 32.828125 103.550781 32.828125 Z M 103.550781 166.710938 C 101.484375 166.710938 99.421875 166.609375 97.363281 166.40625 C 95.308594 166.203125 93.265625 165.902344 91.238281 165.496094 C 89.210938 165.09375 87.207031 164.59375 85.230469 163.992188 C 83.25 163.390625 81.308594 162.695312 79.398438 161.90625 C 77.488281 161.113281 75.621094 160.230469 73.800781 159.257812 C 71.976562 158.28125 70.207031 157.222656 68.488281 156.074219 C 66.769531 154.925781 65.109375 153.695312 63.511719 152.382812 C 61.914062 151.074219 60.382812 149.6875 58.921875 148.222656 C 57.460938 146.761719 56.074219 145.234375 54.761719 143.636719 C 53.453125 142.039062 52.222656 140.378906 51.074219 138.660156 C 49.925781 136.941406 48.863281 135.171875 47.890625 133.347656 C 46.914062 131.523438 46.03125 129.660156 45.242188 127.75 C 44.449219 125.839844 43.753906 123.894531 43.15625 121.917969 C 42.554688 119.9375 42.054688 117.9375 41.648438 115.910156 C 41.246094 113.882812 40.945312 111.839844 40.742188 109.78125 C 40.539062 107.726562 40.4375 105.664062 40.4375 103.597656 C 40.4375 101.53125 40.539062 99.46875 40.742188 97.410156 C 40.945312 95.351562 41.246094 93.3125 41.648438 91.285156 C 42.054688 89.257812 42.554688 87.253906 43.15625 85.277344 C 43.753906 83.296875 44.449219 81.355469 45.242188 79.445312 C 46.03125 77.535156 46.914062 75.667969 47.890625 73.84375 C 48.863281 72.023438 49.925781 70.25 51.074219 68.53125 C 52.222656 66.816406 53.453125 65.15625 54.761719 63.558594 C 56.074219 61.960938 57.460938 60.429688 58.921875 58.96875 C 60.382812 57.507812 61.914062 56.121094 63.511719 54.808594 C 65.109375 53.5 66.765625 52.269531 68.484375 51.121094 C 70.203125 49.972656 71.976562 48.910156 73.796875 47.9375 C 75.621094 46.960938 77.488281 46.078125 79.398438 45.289062 C 81.308594 44.496094 83.25 43.800781 85.230469 43.199219 C 87.207031 42.601562 89.210938 42.097656 91.238281 41.695312 C 93.265625 41.292969 95.304688 40.988281 97.363281 40.789062 C 99.421875 40.585938 101.480469 40.484375 103.550781 40.484375 C 105.617188 40.484375 107.679688 40.585938 109.734375 40.785156 C 111.792969 40.988281 113.835938 41.292969 115.863281 41.695312 C 117.890625 42.097656 119.890625 42.601562 121.871094 43.199219 C 123.847656 43.800781 125.792969 44.496094 127.703125 45.285156 C 129.613281 46.078125 131.476562 46.960938 133.300781 47.933594 C 135.125 48.910156 136.894531 49.96875 138.613281 51.117188 C 140.332031 52.265625 141.992188 53.496094 143.589844 54.808594 C 145.1875 56.121094 146.714844 57.503906 148.175781 58.96875 C 149.640625 60.429688 151.027344 61.957031 152.335938 63.554688 C 153.648438 65.152344 154.878906 66.8125 156.027344 68.53125 C 157.175781 70.25 158.238281 72.019531 159.210938 73.84375 C 160.183594 75.667969 161.066406 77.53125 161.859375 79.441406 C 162.648438 81.351562 163.347656 83.296875 163.945312 85.273438 C 164.546875 87.25 165.046875 89.253906 165.449219 91.28125 C 165.855469 93.308594 166.15625 95.351562 166.359375 97.410156 C 166.5625 99.464844 166.664062 101.527344 166.664062 103.59375 C 166.660156 105.660156 166.558594 107.722656 166.355469 109.777344 C 166.148438 111.835938 165.84375 113.875 165.441406 115.902344 C 165.035156 117.929688 164.53125 119.929688 163.929688 121.90625 C 163.328125 123.882812 162.632812 125.828125 161.839844 127.734375 C 161.050781 129.644531 160.164062 131.507812 159.191406 133.332031 C 158.214844 135.152344 157.152344 136.921875 156.003906 138.640625 C 154.855469 140.359375 153.628906 142.015625 152.316406 143.613281 C 151.003906 145.210938 149.617188 146.738281 148.15625 148.203125 C 146.695312 149.664062 145.167969 151.046875 143.570312 152.359375 C 141.972656 153.671875 140.316406 154.902344 138.597656 156.050781 C 136.878906 157.199219 135.109375 158.257812 133.289062 159.234375 C 131.464844 160.210938 129.601562 161.09375 127.691406 161.882812 C 125.785156 162.675781 123.839844 163.371094 121.863281 163.972656 C 119.886719 164.574219 117.886719 165.078125 115.859375 165.484375 C 113.832031 165.886719 111.789062 166.191406 109.734375 166.398438 C 107.679688 166.601562 105.617188 166.707031 103.550781 166.707031 Z M 103.550781 166.710938 " fill-opacity="1" fill-rule="nonzero"/><path fill="#d6dee6" d="M 135.640625 70.929688 C 133.96875 70.921875 132.363281 71.238281 130.820312 71.878906 C 129.277344 72.515625 127.917969 73.429688 126.738281 74.613281 L 95.457031 105.894531 L 80.363281 90.789062 C 79.777344 90.195312 79.144531 89.667969 78.457031 89.203125 C 77.769531 88.738281 77.042969 88.34375 76.277344 88.023438 C 75.515625 87.699219 74.726562 87.457031 73.910156 87.292969 C 73.097656 87.125 72.277344 87.042969 71.445312 87.039062 C 70.617188 87.035156 69.796875 87.113281 68.980469 87.273438 C 68.167969 87.433594 67.375 87.671875 66.609375 87.988281 C 65.839844 88.304688 65.113281 88.691406 64.421875 89.152344 C 63.730469 89.613281 63.09375 90.136719 62.507812 90.726562 C 61.917969 91.3125 61.394531 91.949219 60.9375 92.640625 C 60.476562 93.332031 60.085938 94.058594 59.769531 94.828125 C 59.457031 95.59375 59.21875 96.386719 59.058594 97.199219 C 58.898438 98.015625 58.820312 98.835938 58.824219 99.667969 C 58.828125 100.496094 58.910156 101.320312 59.078125 102.132812 C 59.242188 102.945312 59.488281 103.734375 59.808594 104.5 C 60.132812 105.261719 60.523438 105.988281 60.992188 106.675781 C 61.457031 107.363281 61.984375 107.996094 62.578125 108.578125 L 86.578125 132.578125 C 87.160156 133.164062 87.796875 133.683594 88.484375 134.144531 C 89.167969 134.601562 89.894531 134.988281 90.65625 135.304688 C 91.417969 135.621094 92.207031 135.859375 93.015625 136.019531 C 93.824219 136.183594 94.644531 136.261719 95.46875 136.261719 C 96.296875 136.261719 97.113281 136.183594 97.921875 136.019531 C 98.734375 135.859375 99.519531 135.621094 100.28125 135.304688 C 101.046875 134.988281 101.769531 134.601562 102.457031 134.144531 C 103.144531 133.683594 103.777344 133.164062 104.363281 132.578125 L 144.535156 92.402344 C 145.414062 91.523438 146.148438 90.535156 146.734375 89.4375 C 147.320312 88.339844 147.734375 87.183594 147.976562 85.960938 C 148.21875 84.742188 148.28125 83.511719 148.15625 82.273438 C 148.035156 81.035156 147.738281 79.84375 147.261719 78.695312 C 146.785156 77.542969 146.152344 76.488281 145.363281 75.527344 C 144.574219 74.566406 143.664062 73.738281 142.628906 73.046875 C 141.59375 72.355469 140.480469 71.832031 139.289062 71.46875 C 138.101562 71.109375 136.882812 70.929688 135.640625 70.929688 Z M 139.121094 86.988281 L 98.941406 127.167969 C 98.710938 127.386719 98.457031 127.585938 98.1875 127.757812 C 97.917969 127.933594 97.632812 128.078125 97.335938 128.199219 C 97.039062 128.316406 96.730469 128.40625 96.417969 128.46875 C 96.101562 128.527344 95.78125 128.558594 95.460938 128.558594 C 95.140625 128.558594 94.824219 128.527344 94.507812 128.46875 C 94.191406 128.40625 93.886719 128.316406 93.589844 128.199219 C 93.289062 128.078125 93.007812 127.933594 92.734375 127.757812 C 92.464844 127.585938 92.214844 127.386719 91.984375 127.167969 L 67.980469 103.15625 C 67.753906 102.929688 67.550781 102.679688 67.371094 102.410156 C 67.191406 102.140625 67.039062 101.859375 66.914062 101.558594 C 66.789062 101.261719 66.695312 100.953125 66.632812 100.636719 C 66.570312 100.320312 66.539062 100 66.539062 99.675781 C 66.539062 99.351562 66.570312 99.03125 66.632812 98.714844 C 66.695312 98.398438 66.789062 98.089844 66.914062 97.792969 C 67.039062 97.492188 67.1875 97.210938 67.367188 96.941406 C 67.546875 96.671875 67.753906 96.421875 67.980469 96.195312 C 68.210938 95.964844 68.457031 95.761719 68.726562 95.582031 C 68.996094 95.402344 69.277344 95.25 69.578125 95.128906 C 69.875 95.003906 70.183594 94.910156 70.5 94.847656 C 70.816406 94.785156 71.136719 94.753906 71.460938 94.753906 C 71.785156 94.753906 72.105469 94.785156 72.421875 94.847656 C 72.738281 94.910156 73.046875 95.003906 73.34375 95.125 C 73.644531 95.25 73.929688 95.402344 74.195312 95.582031 C 74.464844 95.761719 74.714844 95.964844 74.941406 96.195312 L 92.757812 114.003906 C 93.117188 114.363281 93.53125 114.640625 94 114.835938 C 94.46875 115.03125 94.957031 115.128906 95.464844 115.128906 C 95.96875 115.128906 96.457031 115.03125 96.929688 114.835938 C 97.398438 114.640625 97.808594 114.363281 98.167969 114.003906 L 132.160156 80.023438 C 132.394531 79.800781 132.644531 79.605469 132.914062 79.429688 C 133.183594 79.257812 133.46875 79.109375 133.765625 78.988281 C 134.0625 78.871094 134.371094 78.78125 134.683594 78.71875 C 135 78.660156 135.320312 78.628906 135.640625 78.628906 C 135.960938 78.628906 136.28125 78.660156 136.59375 78.71875 C 136.910156 78.78125 137.21875 78.871094 137.515625 78.988281 C 137.8125 79.109375 138.097656 79.257812 138.367188 79.429688 C 138.636719 79.605469 138.886719 79.800781 139.121094 80.023438 C 139.347656 80.253906 139.550781 80.503906 139.730469 80.769531 C 139.910156 81.039062 140.0625 81.324219 140.183594 81.621094 C 140.308594 81.921875 140.402344 82.230469 140.464844 82.546875 C 140.527344 82.863281 140.558594 83.183594 140.558594 83.507812 C 140.558594 83.828125 140.527344 84.148438 140.464844 84.464844 C 140.402344 84.785156 140.308594 85.089844 140.183594 85.390625 C 140.0625 85.6875 139.910156 85.972656 139.730469 86.242188 C 139.550781 86.511719 139.347656 86.757812 139.121094 86.988281 Z M 139.121094 86.988281 " fill-opacity="1" fill-rule="nonzero"/><g clip-path="url(#650bc11f5c)"><path fill="#d6dee6" d="M 702.191406 17.738281 C 700.035156 17.738281 698.285156 19.488281 698.285156 21.644531 C 698.285156 34.890625 687.804688 45.496094 674.839844 45.496094 C 672.683594 45.496094 670.933594 47.246094 670.933594 49.402344 L 670.933594 77.160156 C 670.933594 120.75 688.089844 149.058594 705.304688 166.152344 C 722.5 183.246094 739.960938 189.433594 739.960938 189.433594 C 740.816406 189.738281 741.710938 189.738281 742.566406 189.433594 C 742.566406 189.433594 760.027344 183.246094 777.222656 166.152344 C 794.441406 149.058594 811.59375 120.75 811.59375 77.160156 L 811.59375 49.402344 C 811.59375 47.246094 809.84375 45.496094 807.6875 45.496094 C 794.722656 45.496094 784.242188 34.890625 784.242188 21.644531 C 784.242188 19.488281 782.492188 17.738281 780.335938 17.738281 Z M 705.324219 25.550781 L 777.203125 25.550781 C 779.015625 39.695312 789.777344 50.644531 803.78125 52.515625 L 803.78125 77.160156 C 803.78125 118.714844 787.722656 144.703125 771.726562 160.617188 C 756.769531 175.472656 743.136719 180.742188 741.265625 181.4375 C 739.390625 180.742188 725.757812 175.472656 710.800781 160.617188 C 694.804688 144.703125 678.746094 118.714844 678.746094 77.160156 L 678.746094 52.515625 C 692.75 50.644531 703.515625 39.695312 705.324219 25.550781 Z M 705.324219 25.550781 " fill-opacity="1" fill-rule="nonzero"/></g><path fill="#d6dee6" d="M 741.265625 52.902344 C 717.574219 52.902344 698.285156 72.195312 698.285156 95.882812 C 698.285156 119.570312 717.574219 138.863281 741.265625 138.863281 C 764.953125 138.863281 784.242188 119.570312 784.242188 95.882812 C 784.242188 72.195312 764.953125 52.902344 741.265625 52.902344 Z M 741.265625 60.71875 C 760.738281 60.71875 776.429688 76.40625 776.429688 95.882812 C 776.429688 115.359375 760.738281 131.046875 741.265625 131.046875 C 721.789062 131.046875 706.097656 115.359375 706.097656 95.882812 C 706.097656 76.40625 721.789062 60.71875 741.265625 60.71875 Z M 741.265625 60.71875 " fill-opacity="1" fill-rule="nonzero"/><path fill="#d6dee6" d="M 756.324219 81.554688 L 738.089844 101.945312 L 726.023438 90.164062 C 724.476562 88.65625 722.011719 88.679688 720.507812 90.226562 C 718.980469 91.773438 719.019531 94.234375 720.566406 95.738281 L 735.523438 110.390625 C 737.132812 111.960938 739.695312 111.878906 741.183594 110.210938 L 762.144531 86.765625 C 763.589844 85.15625 763.445312 82.675781 761.839844 81.25 C 760.027344 79.644531 757.726562 79.96875 756.324219 81.554688 Z M 756.324219 81.554688 " fill-opacity="1" fill-rule="nonzero"/><g fill="#e6e6e6" fill-opacity="1"><g transform="translate(34.260259, 287.057579)"><g><path d="M 5.09375 -11.046875 L 5.09375 0 L 2.578125 0 L 2.578125 -27.171875 L 10.109375 -27.171875 C 11.078125 -27.171875 12.050781 -27.0625 13.03125 -26.84375 C 14.007812 -26.625 14.90625 -26.226562 15.71875 -25.65625 C 16.53125 -25.09375 17.1875 -24.3125 17.6875 -23.3125 C 18.1875 -22.3125 18.4375 -21.019531 18.4375 -19.4375 L 18.4375 -18.75 C 18.4375 -17.300781 18.21875 -16.09375 17.78125 -15.125 C 17.351562 -14.164062 16.785156 -13.398438 16.078125 -12.828125 C 15.367188 -12.265625 14.585938 -11.84375 13.734375 -11.5625 L 18.4375 0 L 15.671875 0 L 11.359375 -11.078125 C 11.148438 -11.054688 10.941406 -11.046875 10.734375 -11.046875 C 10.523438 -11.046875 10.316406 -11.046875 10.109375 -11.046875 Z M 5.09375 -13.3125 L 10.171875 -13.3125 C 10.753906 -13.3125 11.375 -13.378906 12.03125 -13.515625 C 12.695312 -13.660156 13.320312 -13.925781 13.90625 -14.3125 C 14.488281 -14.707031 14.957031 -15.269531 15.3125 -16 C 15.675781 -16.738281 15.859375 -17.6875 15.859375 -18.84375 L 15.859375 -19.375 C 15.859375 -20.53125 15.675781 -21.472656 15.3125 -22.203125 C 14.957031 -22.941406 14.488281 -23.507812 13.90625 -23.90625 C 13.320312 -24.300781 12.695312 -24.566406 12.03125 -24.703125 C 11.375 -24.835938 10.753906 -24.90625 10.171875 -24.90625 L 5.09375 -24.90625 Z M 5.09375 -13.3125 "/></g></g></g><g fill="#e6e6e6" fill-opacity="1"><g transform="translate(57.117833, 287.057579)"><g><path d="M 17.25 -8.21875 L 4.1875 -8.21875 C 4.226562 -6.195312 4.695312 -4.597656 5.59375 -3.421875 C 6.488281 -2.253906 7.851562 -1.671875 9.6875 -1.671875 C 10.914062 -1.671875 11.910156 -1.882812 12.671875 -2.3125 C 13.441406 -2.75 14.003906 -3.296875 14.359375 -3.953125 C 14.722656 -4.617188 14.90625 -5.273438 14.90625 -5.921875 L 17.25 -5.921875 L 17.25 -5.78125 C 17.25 -4.832031 16.976562 -3.878906 16.4375 -2.921875 C 15.90625 -1.972656 15.082031 -1.179688 13.96875 -0.546875 C 12.851562 0.078125 11.425781 0.390625 9.6875 0.390625 C 7.832031 0.390625 6.316406 -0.0195312 5.140625 -0.84375 C 3.960938 -1.675781 3.09375 -2.796875 2.53125 -4.203125 C 1.976562 -5.609375 1.703125 -7.15625 1.703125 -8.84375 L 1.703125 -9.609375 C 1.703125 -11.328125 1.972656 -12.882812 2.515625 -14.28125 C 3.066406 -15.675781 3.921875 -16.785156 5.078125 -17.609375 C 6.242188 -18.429688 7.722656 -18.84375 9.515625 -18.84375 C 11.328125 -18.84375 12.800781 -18.429688 13.9375 -17.609375 C 15.070312 -16.785156 15.90625 -15.675781 16.4375 -14.28125 C 16.976562 -12.882812 17.25 -11.328125 17.25 -9.609375 Z M 9.484375 -16.796875 C 7.734375 -16.796875 6.421875 -16.203125 5.546875 -15.015625 C 4.679688 -13.828125 4.226562 -12.238281 4.1875 -10.25 L 14.78125 -10.25 C 14.707031 -12.238281 14.242188 -13.828125 13.390625 -15.015625 C 12.546875 -16.203125 11.242188 -16.796875 9.484375 -16.796875 Z M 9.484375 -16.796875 "/></g></g></g><g fill="#e6e6e6" fill-opacity="1"><g transform="translate(78.581741, 287.057579)"><g><path d="M 2.546875 0 L 2.546875 -27.875 L 4.984375 -27.875 L 4.984375 0 Z M 2.546875 0 "/></g></g></g><g fill="#e6e6e6" fill-opacity="1"><g transform="translate(88.6174, 287.057579)"><g><path d="M 2.546875 0 L 2.546875 -18.46875 L 4.984375 -18.46875 L 4.984375 0 Z M 5.328125 -25.953125 L 5.328125 -22.828125 L 2.1875 -22.828125 L 2.1875 -25.953125 Z M 5.328125 -25.953125 "/></g></g></g><g fill="#e6e6e6" fill-opacity="1"><g transform="translate(98.65306, 287.057579)"><g><path d="M 13.796875 0 L 13.421875 -2.578125 C 12.816406 -1.785156 11.976562 -1.09375 10.90625 -0.5 C 9.832031 0.09375 8.5 0.390625 6.90625 0.390625 C 5.207031 0.390625 3.890625 -0.078125 2.953125 -1.015625 C 2.023438 -1.960938 1.5625 -3.179688 1.5625 -4.671875 L 1.5625 -5.015625 C 1.5625 -6.359375 1.859375 -7.40625 2.453125 -8.15625 C 3.046875 -8.914062 3.800781 -9.484375 4.71875 -9.859375 C 5.632812 -10.234375 6.59375 -10.488281 7.59375 -10.625 L 13.171875 -11.5 L 13.171875 -11.984375 C 13.171875 -13.566406 12.867188 -14.765625 12.265625 -15.578125 C 11.660156 -16.390625 10.535156 -16.796875 8.890625 -16.796875 C 7.722656 -16.796875 6.832031 -16.59375 6.21875 -16.1875 C 5.601562 -15.78125 5.175781 -15.242188 4.9375 -14.578125 C 4.707031 -13.921875 4.59375 -13.1875 4.59375 -12.375 L 2.265625 -12.375 L 2.265625 -12.6875 C 2.265625 -13.382812 2.359375 -14.09375 2.546875 -14.8125 C 2.734375 -15.53125 3.066406 -16.195312 3.546875 -16.8125 C 4.035156 -17.425781 4.71875 -17.914062 5.59375 -18.28125 C 6.46875 -18.65625 7.578125 -18.84375 8.921875 -18.84375 C 10.640625 -18.84375 11.976562 -18.550781 12.9375 -17.96875 C 13.90625 -17.394531 14.59375 -16.597656 15 -15.578125 C 15.40625 -14.554688 15.609375 -13.359375 15.609375 -11.984375 L 15.609375 -5.21875 L 15.8125 0 Z M 7.53125 -1.734375 C 8.664062 -1.734375 9.609375 -1.898438 10.359375 -2.234375 C 11.117188 -2.578125 11.722656 -2.976562 12.171875 -3.4375 C 12.628906 -3.90625 12.960938 -4.316406 13.171875 -4.671875 L 13.171875 -9.71875 L 7.8125 -8.84375 C 6.625 -8.632812 5.691406 -8.234375 5.015625 -7.640625 C 4.335938 -7.054688 4 -6.238281 4 -5.1875 L 4 -4.875 C 4 -4.0625 4.273438 -3.332031 4.828125 -2.6875 C 5.390625 -2.050781 6.289062 -1.734375 7.53125 -1.734375 Z M 7.53125 -1.734375 "/></g></g></g><g fill="#e6e6e6" fill-opacity="1"><g transform="translate(119.002004, 287.057579)"><g><path d="M 4.734375 -27.875 L 4.734375 -16.34375 C 5.222656 -17.039062 5.894531 -17.628906 6.75 -18.109375 C 7.613281 -18.597656 8.6875 -18.84375 9.96875 -18.84375 C 11.664062 -18.84375 13.03125 -18.429688 14.0625 -17.609375 C 15.09375 -16.785156 15.84375 -15.679688 16.3125 -14.296875 C 16.789062 -12.921875 17.03125 -11.375 17.03125 -9.65625 L 17.03125 -8.8125 C 17.03125 -7.113281 16.789062 -5.566406 16.3125 -4.171875 C 15.84375 -2.785156 15.09375 -1.675781 14.0625 -0.84375 C 13.03125 -0.0195312 11.664062 0.390625 9.96875 0.390625 C 8.550781 0.390625 7.398438 0.101562 6.515625 -0.46875 C 5.628906 -1.039062 4.941406 -1.722656 4.453125 -2.515625 L 4.109375 0 L 2.09375 0 L 2.296875 -5.21875 L 2.296875 -27.875 Z M 4.734375 -13.796875 L 4.734375 -4.671875 C 4.992188 -4.273438 5.328125 -3.847656 5.734375 -3.390625 C 6.140625 -2.941406 6.644531 -2.566406 7.25 -2.265625 C 7.851562 -1.960938 8.570312 -1.8125 9.40625 -1.8125 C 11.144531 -1.8125 12.429688 -2.441406 13.265625 -3.703125 C 14.109375 -4.972656 14.53125 -6.675781 14.53125 -8.8125 L 14.53125 -9.65625 C 14.53125 -11.789062 14.109375 -13.488281 13.265625 -14.75 C 12.429688 -16.019531 11.144531 -16.65625 9.40625 -16.65625 C 8.570312 -16.65625 7.851562 -16.503906 7.25 -16.203125 C 6.644531 -15.898438 6.140625 -15.523438 5.734375 -15.078125 C 5.328125 -14.640625 4.992188 -14.210938 4.734375 -13.796875 Z M 4.734375 -13.796875 "/></g></g></g><g fill="#e6e6e6" fill-opacity="1"><g transform="translate(140.222005, 287.057579)"><g><path d="M 2.546875 0 L 2.546875 -27.875 L 4.984375 -27.875 L 4.984375 0 Z M 2.546875 0 "/></g></g></g><g fill="#e6e6e6" fill-opacity="1"><g transform="translate(150.257664, 287.057579)"><g><path d="M 17.25 -8.21875 L 4.1875 -8.21875 C 4.226562 -6.195312 4.695312 -4.597656 5.59375 -3.421875 C 6.488281 -2.253906 7.851562 -1.671875 9.6875 -1.671875 C 10.914062 -1.671875 11.910156 -1.882812 12.671875 -2.3125 C 13.441406 -2.75 14.003906 -3.296875 14.359375 -3.953125 C 14.722656 -4.617188 14.90625 -5.273438 14.90625 -5.921875 L 17.25 -5.921875 L 17.25 -5.78125 C 17.25 -4.832031 16.976562 -3.878906 16.4375 -2.921875 C 15.90625 -1.972656 15.082031 -1.179688 13.96875 -0.546875 C 12.851562 0.078125 11.425781 0.390625 9.6875 0.390625 C 7.832031 0.390625 6.316406 -0.0195312 5.140625 -0.84375 C 3.960938 -1.675781 3.09375 -2.796875 2.53125 -4.203125 C 1.976562 -5.609375 1.703125 -7.15625 1.703125 -8.84375 L 1.703125 -9.609375 C 1.703125 -11.328125 1.972656 -12.882812 2.515625 -14.28125 C 3.066406 -15.675781 3.921875 -16.785156 5.078125 -17.609375 C 6.242188 -18.429688 7.722656 -18.84375 9.515625 -18.84375 C 11.328125 -18.84375 12.800781 -18.429688 13.9375 -17.609375 C 15.070312 -16.785156 15.90625 -15.675781 16.4375 -14.28125 C 16.976562 -12.882812 17.25 -11.328125 17.25 -9.609375 Z M 9.484375 -16.796875 C 7.734375 -16.796875 6.421875 -16.203125 5.546875 -15.015625 C 4.679688 -13.828125 4.226562 -12.238281 4.1875 -10.25 L 14.78125 -10.25 C 14.707031 -12.238281 14.242188 -13.828125 13.390625 -15.015625 C 12.546875 -16.203125 11.242188 -16.796875 9.484375 -16.796875 Z M 9.484375 -16.796875 "/></g></g></g><g fill="#e6e6e6" fill-opacity="1"><g transform="translate(363.547794, 287.057579)"><g><path d="M 8.84375 -27.453125 L 12.4375 -27.453125 L 20.28125 0 L 17.5625 0 L 15.609375 -6.96875 L 5.671875 -6.96875 L 3.734375 0 L 1.015625 0 Z M 10.625 -24.703125 L 6.3125 -9.234375 L 14.953125 -9.234375 Z M 10.625 -24.703125 "/></g></g></g><g fill="#e6e6e6" fill-opacity="1"><g transform="translate(387.346108, 287.057579)"><g><path d="M 4.1875 -8.8125 C 4.1875 -6.695312 4.601562 -5 5.4375 -3.71875 C 6.269531 -2.445312 7.601562 -1.8125 9.4375 -1.8125 C 10.601562 -1.8125 11.523438 -2.023438 12.203125 -2.453125 C 12.890625 -2.878906 13.382812 -3.445312 13.6875 -4.15625 C 13.988281 -4.863281 14.140625 -5.613281 14.140625 -6.40625 L 16.484375 -6.40625 L 16.484375 -5.859375 C 16.484375 -4.878906 16.242188 -3.910156 15.765625 -2.953125 C 15.285156 -2.003906 14.53125 -1.207031 13.5 -0.5625 C 12.46875 0.0703125 11.101562 0.390625 9.40625 0.390625 C 7.613281 0.390625 6.148438 -0.0195312 5.015625 -0.84375 C 3.878906 -1.675781 3.039062 -2.785156 2.5 -4.171875 C 1.96875 -5.566406 1.703125 -7.113281 1.703125 -8.8125 L 1.703125 -9.65625 C 1.703125 -11.375 1.96875 -12.921875 2.5 -14.296875 C 3.039062 -15.679688 3.878906 -16.785156 5.015625 -17.609375 C 6.148438 -18.429688 7.613281 -18.84375 9.40625 -18.84375 C 11.101562 -18.84375 12.46875 -18.507812 13.5 -17.84375 C 14.53125 -17.1875 15.285156 -16.363281 15.765625 -15.375 C 16.242188 -14.394531 16.484375 -13.40625 16.484375 -12.40625 L 16.484375 -11.703125 L 14.140625 -11.703125 C 14.140625 -13.117188 13.773438 -14.296875 13.046875 -15.234375 C 12.316406 -16.179688 11.113281 -16.65625 9.4375 -16.65625 C 7.601562 -16.65625 6.269531 -16.015625 5.4375 -14.734375 C 4.601562 -13.460938 4.1875 -11.769531 4.1875 -9.65625 Z M 4.1875 -8.8125 "/></g></g></g><g fill="#e6e6e6" fill-opacity="1"><g transform="translate(408.043469, 287.057579)"><g><path d="M 4.1875 -8.8125 C 4.1875 -6.695312 4.601562 -5 5.4375 -3.71875 C 6.269531 -2.445312 7.601562 -1.8125 9.4375 -1.8125 C 10.601562 -1.8125 11.523438 -2.023438 12.203125 -2.453125 C 12.890625 -2.878906 13.382812 -3.445312 13.6875 -4.15625 C 13.988281 -4.863281 14.140625 -5.613281 14.140625 -6.40625 L 16.484375 -6.40625 L 16.484375 -5.859375 C 16.484375 -4.878906 16.242188 -3.910156 15.765625 -2.953125 C 15.285156 -2.003906 14.53125 -1.207031 13.5 -0.5625 C 12.46875 0.0703125 11.101562 0.390625 9.40625 0.390625 C 7.613281 0.390625 6.148438 -0.0195312 5.015625 -0.84375 C 3.878906 -1.675781 3.039062 -2.785156 2.5 -4.171875 C 1.96875 -5.566406 1.703125 -7.113281 1.703125 -8.8125 L 1.703125 -9.65625 C 1.703125 -11.375 1.96875 -12.921875 2.5 -14.296875 C 3.039062 -15.679688 3.878906 -16.785156 5.015625 -17.609375 C 6.148438 -18.429688 7.613281 -18.84375 9.40625 -18.84375 C 11.101562 -18.84375 12.46875 -18.507812 13.5 -17.84375 C 14.53125 -17.1875 15.285156 -16.363281 15.765625 -15.375 C 16.242188 -14.394531 16.484375 -13.40625 16.484375 -12.40625 L 16.484375 -11.703125 L 14.140625 -11.703125 C 14.140625 -13.117188 13.773438 -14.296875 13.046875 -15.234375 C 12.316406 -16.179688 11.113281 -16.65625 9.4375 -16.65625 C 7.601562 -16.65625 6.269531 -16.015625 5.4375 -14.734375 C 4.601562 -13.460938 4.1875 -11.769531 4.1875 -9.65625 Z M 4.1875 -8.8125 "/></g></g></g><g fill="#e6e6e6" fill-opacity="1"><g transform="translate(428.740829, 287.057579)"><g><path d="M 2.125 -18.46875 L 4.53125 -18.46875 L 4.53125 -5.890625 C 4.53125 -4.492188 4.894531 -3.460938 5.625 -2.796875 C 6.351562 -2.140625 7.320312 -1.8125 8.53125 -1.8125 C 9.507812 -1.8125 10.328125 -1.960938 10.984375 -2.265625 C 11.648438 -2.566406 12.195312 -2.941406 12.625 -3.390625 C 13.0625 -3.847656 13.40625 -4.273438 13.65625 -4.671875 L 13.65625 -18.46875 L 16.09375 -18.46875 L 16.09375 -5.21875 L 16.3125 0 L 14.28125 0 L 13.90625 -2.578125 C 13.394531 -1.765625 12.632812 -1.066406 11.625 -0.484375 C 10.613281 0.0976562 9.316406 0.390625 7.734375 0.390625 C 5.898438 0.390625 4.503906 -0.164062 3.546875 -1.28125 C 2.597656 -2.40625 2.125 -3.828125 2.125 -5.546875 Z M 2.125 -18.46875 "/></g></g></g><g fill="#e6e6e6" fill-opacity="1"><g transform="translate(449.64724, 287.057579)"><g><path d="M 9.609375 -18.84375 C 9.734375 -18.84375 9.847656 -18.835938 9.953125 -18.828125 C 10.054688 -18.816406 10.117188 -18.8125 10.140625 -18.8125 L 10.140625 -16.484375 L 9.65625 -16.484375 C 8.726562 -16.484375 7.941406 -16.335938 7.296875 -16.046875 C 6.660156 -15.753906 6.140625 -15.394531 5.734375 -14.96875 C 5.328125 -14.539062 4.992188 -14.113281 4.734375 -13.6875 L 4.734375 0 L 2.296875 0 L 2.296875 -13.234375 L 2.09375 -18.46875 L 4.109375 -18.46875 L 4.453125 -16.03125 C 4.941406 -16.789062 5.613281 -17.445312 6.46875 -18 C 7.332031 -18.5625 8.378906 -18.84375 9.609375 -18.84375 Z M 9.609375 -18.84375 "/></g></g></g><g fill="#e6e6e6" fill-opacity="1"><g transform="translate(463.75945, 287.057579)"><g><path d="M 13.796875 0 L 13.421875 -2.578125 C 12.816406 -1.785156 11.976562 -1.09375 10.90625 -0.5 C 9.832031 0.09375 8.5 0.390625 6.90625 0.390625 C 5.207031 0.390625 3.890625 -0.078125 2.953125 -1.015625 C 2.023438 -1.960938 1.5625 -3.179688 1.5625 -4.671875 L 1.5625 -5.015625 C 1.5625 -6.359375 1.859375 -7.40625 2.453125 -8.15625 C 3.046875 -8.914062 3.800781 -9.484375 4.71875 -9.859375 C 5.632812 -10.234375 6.59375 -10.488281 7.59375 -10.625 L 13.171875 -11.5 L 13.171875 -11.984375 C 13.171875 -13.566406 12.867188 -14.765625 12.265625 -15.578125 C 11.660156 -16.390625 10.535156 -16.796875 8.890625 -16.796875 C 7.722656 -16.796875 6.832031 -16.59375 6.21875 -16.1875 C 5.601562 -15.78125 5.175781 -15.242188 4.9375 -14.578125 C 4.707031 -13.921875 4.59375 -13.1875 4.59375 -12.375 L 2.265625 -12.375 L 2.265625 -12.6875 C 2.265625 -13.382812 2.359375 -14.09375 2.546875 -14.8125 C 2.734375 -15.53125 3.066406 -16.195312 3.546875 -16.8125 C 4.035156 -17.425781 4.71875 -17.914062 5.59375 -18.28125 C 6.46875 -18.65625 7.578125 -18.84375 8.921875 -18.84375 C 10.640625 -18.84375 11.976562 -18.550781 12.9375 -17.96875 C 13.90625 -17.394531 14.59375 -16.597656 15 -15.578125 C 15.40625 -14.554688 15.609375 -13.359375 15.609375 -11.984375 L 15.609375 -5.21875 L 15.8125 0 Z M 7.53125 -1.734375 C 8.664062 -1.734375 9.609375 -1.898438 10.359375 -2.234375 C 11.117188 -2.578125 11.722656 -2.976562 12.171875 -3.4375 C 12.628906 -3.90625 12.960938 -4.316406 13.171875 -4.671875 L 13.171875 -9.71875 L 7.8125 -8.84375 C 6.625 -8.632812 5.691406 -8.234375 5.015625 -7.640625 C 4.335938 -7.054688 4 -6.238281 4 -5.1875 L 4 -4.875 C 4 -4.0625 4.273438 -3.332031 4.828125 -2.6875 C 5.390625 -2.050781 6.289062 -1.734375 7.53125 -1.734375 Z M 7.53125 -1.734375 "/></g></g></g><g fill="#e6e6e6" fill-opacity="1"><g transform="translate(484.108394, 287.057579)"><g><path d="M 6.453125 -18.46875 L 12.328125 -18.46875 L 12.328125 -16.265625 L 6.453125 -16.265625 L 6.453125 -5.4375 C 6.453125 -3.96875 6.753906 -2.992188 7.359375 -2.515625 C 7.960938 -2.046875 8.84375 -1.8125 10 -1.8125 C 10.394531 -1.8125 10.789062 -1.84375 11.1875 -1.90625 C 11.582031 -1.976562 11.847656 -2.050781 11.984375 -2.125 L 11.984375 0 C 11.847656 0.0390625 11.566406 0.113281 11.140625 0.21875 C 10.722656 0.332031 10.144531 0.390625 9.40625 0.390625 C 7.851562 0.390625 6.5625 -0.0234375 5.53125 -0.859375 C 4.507812 -1.703125 4 -3.125 4 -5.125 L 4 -16.265625 L 1.078125 -16.265625 L 1.078125 -18.46875 L 4 -18.46875 L 4 -23.6875 L 6.453125 -23.6875 Z M 6.453125 -18.46875 "/></g></g></g><g fill="#e6e6e6" fill-opacity="1"><g transform="translate(500.555011, 287.057579)"><g><path d="M 17.25 -8.21875 L 4.1875 -8.21875 C 4.226562 -6.195312 4.695312 -4.597656 5.59375 -3.421875 C 6.488281 -2.253906 7.851562 -1.671875 9.6875 -1.671875 C 10.914062 -1.671875 11.910156 -1.882812 12.671875 -2.3125 C 13.441406 -2.75 14.003906 -3.296875 14.359375 -3.953125 C 14.722656 -4.617188 14.90625 -5.273438 14.90625 -5.921875 L 17.25 -5.921875 L 17.25 -5.78125 C 17.25 -4.832031 16.976562 -3.878906 16.4375 -2.921875 C 15.90625 -1.972656 15.082031 -1.179688 13.96875 -0.546875 C 12.851562 0.078125 11.425781 0.390625 9.6875 0.390625 C 7.832031 0.390625 6.316406 -0.0195312 5.140625 -0.84375 C 3.960938 -1.675781 3.09375 -2.796875 2.53125 -4.203125 C 1.976562 -5.609375 1.703125 -7.15625 1.703125 -8.84375 L 1.703125 -9.609375 C 1.703125 -11.328125 1.972656 -12.882812 2.515625 -14.28125 C 3.066406 -15.675781 3.921875 -16.785156 5.078125 -17.609375 C 6.242188 -18.429688 7.722656 -18.84375 9.515625 -18.84375 C 11.328125 -18.84375 12.800781 -18.429688 13.9375 -17.609375 C 15.070312 -16.785156 15.90625 -15.675781 16.4375 -14.28125 C 16.976562 -12.882812 17.25 -11.328125 17.25 -9.609375 Z M 9.484375 -16.796875 C 7.734375 -16.796875 6.421875 -16.203125 5.546875 -15.015625 C 4.679688 -13.828125 4.226562 -12.238281 4.1875 -10.25 L 14.78125 -10.25 C 14.707031 -12.238281 14.242188 -13.828125 13.390625 -15.015625 C 12.546875 -16.203125 11.242188 -16.796875 9.484375 -16.796875 Z M 9.484375 -16.796875 "/></g></g></g><g fill="#e6e6e6" fill-opacity="1"><g transform="translate(699.015593, 287.057579)"><g><path d="M 10.03125 -12.890625 C 7.082031 -13.285156 4.992188 -14.109375 3.765625 -15.359375 C 2.535156 -16.617188 1.921875 -18.144531 1.921875 -19.9375 L 1.921875 -20.28125 C 1.921875 -22.550781 2.695312 -24.332031 4.25 -25.625 C 5.800781 -26.914062 7.867188 -27.5625 10.453125 -27.5625 C 13.492188 -27.5625 15.679688 -26.804688 17.015625 -25.296875 C 18.359375 -23.785156 19.03125 -21.625 19.03125 -18.8125 L 19.03125 -17.984375 L 16.515625 -17.984375 C 16.515625 -20.554688 16.035156 -22.414062 15.078125 -23.5625 C 14.128906 -24.71875 12.625 -25.296875 10.5625 -25.296875 L 10.3125 -25.296875 C 8.664062 -25.296875 7.285156 -24.875 6.171875 -24.03125 C 5.054688 -23.195312 4.5 -22.050781 4.5 -20.59375 L 4.5 -20.3125 C 4.5 -19.363281 4.6875 -18.535156 5.0625 -17.828125 C 5.445312 -17.117188 6.109375 -16.53125 7.046875 -16.0625 C 7.992188 -15.59375 9.300781 -15.242188 10.96875 -15.015625 C 13.945312 -14.617188 16.085938 -13.8125 17.390625 -12.59375 C 18.691406 -11.375 19.34375 -9.71875 19.34375 -7.625 L 19.34375 -7.28125 C 19.34375 -4.882812 18.539062 -3.003906 16.9375 -1.640625 C 15.332031 -0.285156 13.171875 0.390625 10.453125 0.390625 C 7.566406 0.390625 5.367188 -0.382812 3.859375 -1.9375 C 2.359375 -3.5 1.609375 -5.6875 1.609375 -8.5 L 1.609375 -8.84375 L 4.109375 -8.84375 C 4.109375 -6.457031 4.6875 -4.695312 5.84375 -3.5625 C 7.007812 -2.4375 8.507812 -1.875 10.34375 -1.875 L 10.59375 -1.875 C 12.445312 -1.875 13.9375 -2.332031 15.0625 -3.25 C 16.195312 -4.175781 16.765625 -5.460938 16.765625 -7.109375 L 16.765625 -7.421875 C 16.765625 -9.023438 16.234375 -10.253906 15.171875 -11.109375 C 14.117188 -11.972656 12.40625 -12.566406 10.03125 -12.890625 Z M 10.03125 -12.890625 "/></g></g></g><g fill="#e6e6e6" fill-opacity="1"><g transform="translate(722.46549, 287.057579)"><g><path d="M 13.796875 0 L 13.421875 -2.578125 C 12.816406 -1.785156 11.976562 -1.09375 10.90625 -0.5 C 9.832031 0.09375 8.5 0.390625 6.90625 0.390625 C 5.207031 0.390625 3.890625 -0.078125 2.953125 -1.015625 C 2.023438 -1.960938 1.5625 -3.179688 1.5625 -4.671875 L 1.5625 -5.015625 C 1.5625 -6.359375 1.859375 -7.40625 2.453125 -8.15625 C 3.046875 -8.914062 3.800781 -9.484375 4.71875 -9.859375 C 5.632812 -10.234375 6.59375 -10.488281 7.59375 -10.625 L 13.171875 -11.5 L 13.171875 -11.984375 C 13.171875 -13.566406 12.867188 -14.765625 12.265625 -15.578125 C 11.660156 -16.390625 10.535156 -16.796875 8.890625 -16.796875 C 7.722656 -16.796875 6.832031 -16.59375 6.21875 -16.1875 C 5.601562 -15.78125 5.175781 -15.242188 4.9375 -14.578125 C 4.707031 -13.921875 4.59375 -13.1875 4.59375 -12.375 L 2.265625 -12.375 L 2.265625 -12.6875 C 2.265625 -13.382812 2.359375 -14.09375 2.546875 -14.8125 C 2.734375 -15.53125 3.066406 -16.195312 3.546875 -16.8125 C 4.035156 -17.425781 4.71875 -17.914062 5.59375 -18.28125 C 6.46875 -18.65625 7.578125 -18.84375 8.921875 -18.84375 C 10.640625 -18.84375 11.976562 -18.550781 12.9375 -17.96875 C 13.90625 -17.394531 14.59375 -16.597656 15 -15.578125 C 15.40625 -14.554688 15.609375 -13.359375 15.609375 -11.984375 L 15.609375 -5.21875 L 15.8125 0 Z M 7.53125 -1.734375 C 8.664062 -1.734375 9.609375 -1.898438 10.359375 -2.234375 C 11.117188 -2.578125 11.722656 -2.976562 12.171875 -3.4375 C 12.628906 -3.90625 12.960938 -4.316406 13.171875 -4.671875 L 13.171875 -9.71875 L 7.8125 -8.84375 C 6.625 -8.632812 5.691406 -8.234375 5.015625 -7.640625 C 4.335938 -7.054688 4 -6.238281 4 -5.1875 L 4 -4.875 C 4 -4.0625 4.273438 -3.332031 4.828125 -2.6875 C 5.390625 -2.050781 6.289062 -1.734375 7.53125 -1.734375 Z M 7.53125 -1.734375 "/></g></g></g><g fill="#e6e6e6" fill-opacity="1"><g transform="translate(742.814434, 287.057579)"><g><path d="M 6.453125 -22.4375 L 6.453125 -18.46875 L 11.640625 -18.46875 L 11.640625 -16.265625 L 6.453125 -16.265625 L 6.453125 0 L 4 0 L 4 -16.265625 L 1.078125 -16.265625 L 1.078125 -18.46875 L 4 -18.46875 L 4 -22.75 C 4 -24.75 4.507812 -26.164062 5.53125 -27 C 6.5625 -27.84375 7.851562 -28.265625 9.40625 -28.265625 C 10.144531 -28.265625 10.722656 -28.207031 11.140625 -28.09375 C 11.566406 -27.988281 11.847656 -27.914062 11.984375 -27.875 L 11.984375 -25.75 C 11.847656 -25.820312 11.582031 -25.890625 11.1875 -25.953125 C 10.789062 -26.023438 10.394531 -26.0625 10 -26.0625 C 8.84375 -26.0625 7.960938 -25.820312 7.359375 -25.34375 C 6.753906 -24.875 6.453125 -23.90625 6.453125 -22.4375 Z M 6.453125 -22.4375 "/></g></g></g><g fill="#e6e6e6" fill-opacity="1"><g transform="translate(758.564218, 287.057579)"><g><path d="M 17.25 -8.21875 L 4.1875 -8.21875 C 4.226562 -6.195312 4.695312 -4.597656 5.59375 -3.421875 C 6.488281 -2.253906 7.851562 -1.671875 9.6875 -1.671875 C 10.914062 -1.671875 11.910156 -1.882812 12.671875 -2.3125 C 13.441406 -2.75 14.003906 -3.296875 14.359375 -3.953125 C 14.722656 -4.617188 14.90625 -5.273438 14.90625 -5.921875 L 17.25 -5.921875 L 17.25 -5.78125 C 17.25 -4.832031 16.976562 -3.878906 16.4375 -2.921875 C 15.90625 -1.972656 15.082031 -1.179688 13.96875 -0.546875 C 12.851562 0.078125 11.425781 0.390625 9.6875 0.390625 C 7.832031 0.390625 6.316406 -0.0195312 5.140625 -0.84375 C 3.960938 -1.675781 3.09375 -2.796875 2.53125 -4.203125 C 1.976562 -5.609375 1.703125 -7.15625 1.703125 -8.84375 L 1.703125 -9.609375 C 1.703125 -11.328125 1.972656 -12.882812 2.515625 -14.28125 C 3.066406 -15.675781 3.921875 -16.785156 5.078125 -17.609375 C 6.242188 -18.429688 7.722656 -18.84375 9.515625 -18.84375 C 11.328125 -18.84375 12.800781 -18.429688 13.9375 -17.609375 C 15.070312 -16.785156 15.90625 -15.675781 16.4375 -14.28125 C 16.976562 -12.882812 17.25 -11.328125 17.25 -9.609375 Z M 9.484375 -16.796875 C 7.734375 -16.796875 6.421875 -16.203125 5.546875 -15.015625 C 4.679688 -13.828125 4.226562 -12.238281 4.1875 -10.25 L 14.78125 -10.25 C 14.707031 -12.238281 14.242188 -13.828125 13.390625 -15.015625 C 12.546875 -16.203125 11.242188 -16.796875 9.484375 -16.796875 Z M 9.484375 -16.796875 "/></g></g></g></g></g></svg>